<?xml version="1.0" standalone="no"?>
<!DOCTYPE svg PUBLIC "-//W3C//DTD SVG 20010904//EN"
 "http://www.w3.org/TR/2001/REC-SVG-20010904/DTD/svg10.dtd">
<svg version="1.0" xmlns="http://www.w3.org/2000/svg"
 width="86.000000pt" height="86.000000pt" viewBox="0 0 86.000000 86.000000"
 preserveAspectRatio="xMidYMid meet">
<metadata>
Created by potrace 1.11, written by Peter Selinger 2001-2013
</metadata>
<g transform="translate(0.000000,86.000000) scale(0.100000,-0.100000)"
fill="#000000" stroke="none">
<path d="M427 823 c-2 -4 -8 -30 -12 -58 -4 -27 -13 -65 -21 -84 -8 -18 -14
-42 -14 -52 0 -11 -7 -19 -15 -19 -9 0 -15 -9 -15 -25 0 -20 -5 -25 -25 -25
-23 0 -25 -4 -25 -45 0 -38 -3 -45 -20 -45 -19 0 -20 -7 -20 -177 l0 -177 -31
30 c-35 33 -68 93 -80 142 l-7 32 44 0 c32 0 44 4 44 15 0 11 -12 15 -45 15
-25 0 -45 5 -45 10 0 6 14 10 31 10 35 0 36 23 1 28 -14 2 -22 11 -22 23 0 34
48 116 86 147 21 18 35 37 32 47 -2 14 -12 9 -50 -24 -219 -194 -77 -561 217
-561 129 0 238 70 293 188 22 47 27 71 27 137 0 67 -4 89 -28 137 -33 68 -110
143 -115 114 -3 -11 7 -27 23 -40 l26 -21 -27 -2 c-24 -1 -43 -17 -44 -35 0
-12 25 -9 38 4 9 9 15 10 20 2 4 -7 16 -13 27 -15 71 -14 70 -279 -1 -279 -13
0 -24 -4 -24 -10 0 -5 7 -10 15 -10 23 0 18 -13 -17 -49 l-33 -34 -3 177 c-2
168 -3 176 -22 176 -17 0 -20 7 -20 45 0 38 -3 45 -20 45 -15 0 -20 7 -20 25
0 18 -5 25 -20 25 -14 0 -20 7 -20 23 0 12 -7 40 -15 62 -8 22 -14 56 -15 76
0 34 -23 70 -33 52z m17 -161 c-21 -5 -24 0 -17 27 l6 23 13 -23 c11 -20 10
-25 -2 -27z m16 -42 c0 -5 -11 -10 -25 -10 -14 0 -25 5 -25 10 0 6 11 10 25
10 14 0 25 -4 25 -10z m40 -50 c0 -6 -27 -10 -60 -10 -33 0 -60 4 -60 10 0 6
27 10 60 10 33 0 60 -4 60 -10z m40 -70 c0 -28 -2 -30 -40 -30 l-40 0 0 -205
0 -205 -30 0 -30 0 0 205 0 205 -35 0 c-32 0 -35 2 -35 30 l0 30 105 0 105 0
0 -30z m-170 -125 l0 -75 -40 0 -40 0 0 75 0 75 40 0 40 0 0 -75z m208 -2 l3
-73 -46 0 -45 0 0 68 c0 38 3 72 7 76 4 4 23 6 43 4 l35 -3 3 -72z m-208 -203
c0 -89 -2 -100 -17 -100 -21 0 -55 20 -35 20 6 0 12 9 12 20 0 27 -28 25 -33
-2 -2 -13 -5 19 -6 70 l-1 92 40 0 40 0 0 -100z m180 80 c0 -27 18 -25 23 3 2
12 5 -19 6 -69 1 -88 0 -91 -24 -102 -14 -7 -35 -12 -45 -12 -19 0 -20 7 -20
100 l0 100 30 0 c23 0 30 -4 30 -20z"/>
<path d="M340 500 c0 -11 5 -20 10 -20 6 0 10 9 10 20 0 11 -4 20 -10 20 -5 0
-10 -9 -10 -20z"/>
<path d="M390 500 c0 -11 7 -20 15 -20 8 0 15 9 15 20 0 11 -7 20 -15 20 -8 0
-15 -9 -15 -20z"/>
<path d="M440 500 c0 -11 7 -20 15 -20 8 0 15 9 15 20 0 11 -7 20 -15 20 -8 0
-15 -9 -15 -20z"/>
<path d="M500 500 c0 -11 5 -20 10 -20 6 0 10 9 10 20 0 11 -4 20 -10 20 -5 0
-10 -9 -10 -20z"/>
<path d="M420 445 c0 -8 5 -15 10 -15 6 0 10 7 10 15 0 8 -4 15 -10 15 -5 0
-10 -7 -10 -15z"/>
<path d="M420 395 c0 -8 5 -15 10 -15 6 0 10 7 10 15 0 8 -4 15 -10 15 -5 0
-10 -7 -10 -15z"/>
<path d="M420 340 c0 -11 5 -20 10 -20 6 0 10 9 10 20 0 11 -4 20 -10 20 -5 0
-10 -9 -10 -20z"/>
<path d="M420 285 c0 -8 5 -15 10 -15 6 0 10 7 10 15 0 8 -4 15 -10 15 -5 0
-10 -7 -10 -15z"/>
<path d="M420 235 c0 -8 5 -15 10 -15 6 0 10 7 10 15 0 8 -4 15 -10 15 -5 0
-10 -7 -10 -15z"/>
<path d="M420 180 c0 -11 5 -20 10 -20 6 0 10 9 10 20 0 11 -4 20 -10 20 -5 0
-10 -9 -10 -20z"/>
<path d="M420 125 c0 -8 5 -15 10 -15 6 0 10 7 10 15 0 8 -4 15 -10 15 -5 0
-10 -7 -10 -15z"/>
<path d="M420 85 c0 -8 5 -15 10 -15 6 0 10 7 10 15 0 8 -4 15 -10 15 -5 0
-10 -7 -10 -15z"/>
<path d="M300 395 c0 -8 7 -15 15 -15 8 0 15 7 15 15 0 8 -7 15 -15 15 -8 0
-15 -7 -15 -15z"/>
<path d="M340 395 c0 -8 5 -15 10 -15 6 0 10 7 10 15 0 8 -4 15 -10 15 -5 0
-10 -7 -10 -15z"/>
<path d="M300 340 c0 -11 7 -20 15 -20 8 0 15 9 15 20 0 11 -7 20 -15 20 -8 0
-15 -9 -15 -20z"/>
<path d="M340 340 c0 -11 5 -20 10 -20 6 0 10 9 10 20 0 11 -4 20 -10 20 -5 0
-10 -9 -10 -20z"/>
<path d="M500 395 c0 -8 5 -15 10 -15 6 0 10 7 10 15 0 8 -4 15 -10 15 -5 0
-10 -7 -10 -15z"/>
<path d="M540 395 c0 -8 5 -15 10 -15 6 0 10 7 10 15 0 8 -4 15 -10 15 -5 0
-10 -7 -10 -15z"/>
<path d="M500 340 c0 -11 5 -20 10 -20 6 0 10 9 10 20 0 11 -4 20 -10 20 -5 0
-10 -9 -10 -20z"/>
<path d="M540 345 c0 -8 5 -15 10 -15 6 0 10 7 10 15 0 8 -4 15 -10 15 -5 0
-10 -7 -10 -15z"/>
<path d="M300 215 c0 -8 7 -15 15 -15 8 0 15 7 15 15 0 8 -7 15 -15 15 -8 0
-15 -7 -15 -15z"/>
<path d="M340 215 c0 -8 5 -15 10 -15 6 0 10 7 10 15 0 8 -4 15 -10 15 -5 0
-10 -7 -10 -15z"/>
<path d="M300 165 c0 -8 7 -15 15 -15 8 0 15 7 15 15 0 8 -7 15 -15 15 -8 0
-15 -7 -15 -15z"/>
<path d="M340 165 c0 -8 5 -15 10 -15 6 0 10 7 10 15 0 8 -4 15 -10 15 -5 0
-10 -7 -10 -15z"/>
<path d="M340 110 c0 -11 5 -20 10 -20 6 0 10 9 10 20 0 11 -4 20 -10 20 -5 0
-10 -9 -10 -20z"/>
<path d="M500 215 c0 -8 5 -15 10 -15 6 0 10 7 10 15 0 8 -4 15 -10 15 -5 0
-10 -7 -10 -15z"/>
<path d="M550 195 c0 -8 5 -15 10 -15 6 0 10 7 10 15 0 8 -4 15 -10 15 -5 0
-10 -7 -10 -15z"/>
<path d="M500 165 c0 -8 5 -15 10 -15 6 0 10 7 10 15 0 8 -4 15 -10 15 -5 0
-10 -7 -10 -15z"/>
<path d="M550 155 c0 -8 5 -15 10 -15 6 0 10 7 10 15 0 8 -4 15 -10 15 -5 0
-10 -7 -10 -15z"/>
<path d="M500 110 c0 -11 5 -20 10 -20 6 0 10 9 10 20 0 11 -4 20 -10 20 -5 0
-10 -9 -10 -20z"/>
</g>
</svg>
